<svg xmlns="http://www.w3.org/2000/svg" xmlns:svg="http://www.w3.org/2000/svg" xmlns:xlink="http://www.w3.org/1999/xlink" id="f1a3512c-954b-43cd-b4a7-b2a657bfa049" width="500" height="500" data-name="Layer 1" version="1.1" viewBox="0 0 500 500"><metadata id="metadata196"/><defs id="defs23"><linearGradient id="a846f69c-c3f1-49f3-adee-5a4e8443ee4e" x1="277.46" x2="277.46" y1="697.11" y2="669.52" gradientUnits="userSpaceOnUse"><stop id="stop2" offset="0" stop-color="gray" stop-opacity=".25"/><stop id="stop4" offset=".54" stop-color="gray" stop-opacity=".12"/><stop id="stop6" offset="1" stop-color="gray" stop-opacity=".1"/></linearGradient><linearGradient id="b1395abd-e294-4466-9af9-40f9f1f4ad0f" x1="748.15" x2="748.15" y1="567.16" y2="544.13" xlink:href="#a846f69c-c3f1-49f3-adee-5a4e8443ee4e"/><linearGradient id="a8b11853-451e-4181-8600-fa718044326b" x1="556.93" x2="556.93" y1="707.16" y2="42.89" xlink:href="#a846f69c-c3f1-49f3-adee-5a4e8443ee4e"/><linearGradient id="f1ea05b4-3102-498a-ab85-05d222a08540" x1="456.95" x2="456.95" y1="628.14" y2="692.54" gradientUnits="userSpaceOnUse"><stop id="stop11" offset="0" stop-color="#e0e0e0"/><stop id="stop13" offset=".31" stop-color="#fccc63"/><stop id="stop15" offset=".77" stop-color="#f55f44"/></linearGradient><linearGradient id="a65a9945-4cea-45de-8969-2abf9ed9c602" x1="534.05" x2="534.05" y1="628.14" y2="692.54" xlink:href="#f1ea05b4-3102-498a-ab85-05d222a08540"/><linearGradient id="e83da883-60d3-4fc8-a1fc-2d21e84cc652" x1="582.35" x2="582.35" y1="628.14" y2="692.54" xlink:href="#f1ea05b4-3102-498a-ab85-05d222a08540"/><linearGradient id="e7319a41-e0d4-4be9-9de6-9ff87ed2cc66" x1="660.3" x2="660.3" y1="628.14" y2="692.54" xlink:href="#f1ea05b4-3102-498a-ab85-05d222a08540"/><linearGradient id="a8b1f8cd-6e4b-4699-9cd1-501c51b12a87" x1="766.05" x2="766.05" y1="409.23" y2="340.57" xlink:href="#a846f69c-c3f1-49f3-adee-5a4e8443ee4e"/><linearGradient id="ef97273a-5cfd-4109-a624-feeb24fdeadc" x1="331.05" x2="331.05" y1="577.85" y2="529.94" xlink:href="#a846f69c-c3f1-49f3-adee-5a4e8443ee4e"/><linearGradient id="linearGradient1058" x1="456.95" x2="456.95" y1="628.14" y2="692.54" gradientUnits="userSpaceOnUse" xlink:href="#f1ea05b4-3102-498a-ab85-05d222a08540"/></defs><title id="title25">Outer space</title><g id="g1056" transform="matrix(0.63842909,0,0,0.63842909,-87.114341,32.938825)"><polygon id="polygon65" fill="#fff" points="419.06 158.62 419.9 158.62 419.9 156.55 421.97 156.55 421.97 155.71 419.9 155.71 419.9 153.64 419.06 153.64 419.06 155.71 416.99 155.71 416.99 156.55 419.06 156.55"/><g id="g81" opacity=".7"><path style="fill:url(#a8b11853-451e-4181-8600-fa718044326b)" id="path79" fill="url(#a8b11853-451e-4181-8600-fa718044326b)" d="m 702.38,349.92 a 154.77,154.77 0 0 0 -17.5,-72 C 679.39,267.48 674.38,261 670.52,257.01 a 10.25,10.25 0 0 0 -11.74,-2.26 10.64,10.64 0 0 0 -4.11,2.65 c -5.21,5.4 -9.92,12.54 -14,20.13 a 155.43,155.43 0 0 0 -18.37,74 v 15.48 h -9.93 V 187 c 0,-37.72 -8.44,-74.93 -25,-107.93 -7.84,-15.64 -15,-25.36 -20.49,-31.33 a 14.2,14.2 0 0 0 -21.35,0 c -7.44,8.09 -14.16,18.79 -20,30.16 -17.39,33.72 -26.22,72 -26.22,110.82 v 178.22 h -8.58 v -16.23 a 155.39,155.39 0 0 0 -18.37,-73.95 c -4.11,-7.59 -8.82,-14.73 -14,-20.13 a 10.27,10.27 0 0 0 -12,-2.18 l 0.36,0.19 a 10.76,10.76 0 0 0 -3.35,2.34 c -3.85,4 -8.86,10.47 -14.35,20.91 a 154.77,154.77 0 0 0 -17.5,72 v 269 h 30.64 L 438.78,641 v 66.13 h 25.06 V 641 l -3.35,-22.12 h 30.2 v -245 h 8.58 v 243.94 h 24.47 L 520.23,641 v 66.13 h 25.06 V 641 l -3.51,-23.21 h 33 L 571.25,641 v 66.13 h 25.06 V 641 l -3.51,-23.21 h 19.54 V 373.91 h 9.93 v 245.37 h 8.05 v -0.37 h 26.62 L 653.6,641 v 66.13 h 25.06 V 641 l -3.35,-22.12 h 27.07 z" transform="translate(-32.41,-42.89)"/></g><polygon id="polygon83" fill="#535461" points="436.4 585.25 412.67 585.25 416.91 556.44 432.16 556.44"/><g id="g87" opacity=".1"><polygon id="polygon85" points="415.73 567.88 433.34 567.88 432.16 559.83 416.91 559.83"/></g><polygon id="polygon89" fill="#535461" points="639.75 585.25 616.03 585.25 620.26 556.44 635.52 556.44"/><g id="g93" opacity=".1"><polygon id="polygon91" points="619.08 567.88 636.7 567.88 635.52 559.83 620.26 559.83"/></g><polygon id="polygon95" fill="#535461" points="513.5 585.25 489.78 585.25 494.01 556.44 509.27 556.44"/><g id="g99" opacity=".1"><polygon id="polygon97" points="492.83 567.88 510.45 567.88 509.27 559.83 494.01 559.83"/></g><polygon id="polygon101" fill="#535461" points="561.8 585.25 538.08 585.25 542.31 556.44 557.56 556.44"/><g id="g105" opacity=".1"><polygon id="polygon103" points="541.13 567.88 558.75 567.88 557.56 559.83 542.31 559.83"/></g><rect id="rect107" width="169.46" height="6.78" x="436.4" y="318.35" fill="#535461"/><path id="path109" fill="#e0e0e0" d="m 664.46,254.16 a 9.55,9.55 0 0 0 -14.16,0 c -4.93,5.26 -9.39,12.21 -13.28,19.6 a 154.77,154.77 0 0 0 -17.39,72 V 606.6 h 75 V 344.66 a 154.22,154.22 0 0 0 -16.57,-70.14 c -5.21,-10.16 -9.95,-16.52 -13.6,-20.36 z" transform="translate(-32.41,-42.89)"/><path id="path111" fill="#e0e0e0" d="m 449.39,254.16 a 9.55,9.55 0 0 1 14.16,0 c 4.94,5.26 9.39,12.21 13.29,19.6 a 154.89,154.89 0 0 1 17.39,72 V 606.6 h -75 V 344.66 a 154.22,154.22 0 0 1 16.57,-70.14 c 5.2,-10.16 9.94,-16.52 13.59,-20.36 z" transform="translate(-32.41,-42.89)"/><polygon id="polygon113" fill="#535461" points="387.25 307.33 405.05 307.42 405.05 329.36 387.25 329.36"/><polygon id="polygon115" fill="#535461" points="444.02 307.33 461.82 307.42 461.82 329.36 444.02 329.36"/><polygon id="polygon117" fill="#535461" points="587.22 307.33 605.01 307.42 605.01 329.36 587.22 329.36"/><g id="g123" opacity=".1"><path id="path121" d="m 476.84,273.42 c -3.9,-7.39 -8.35,-14.34 -13.29,-19.6 a 9.51,9.51 0 0 0 -11.33,-2.13 10.11,10.11 0 0 1 2.86,2.13 c 4.93,5.26 9.39,12.21 13.28,19.6 a 154.75,154.75 0 0 1 17.39,72 v 260.82 h 8.48 V 345.43 a 154.88,154.88 0 0 0 -17.39,-72.01 z" transform="translate(-32.41,-42.89)"/></g><g id="g127" opacity=".1"><path id="path125" d="m 643.8,274.14 c 3.89,-7.39 8.35,-14.34 13.28,-19.6 a 9.92,9.92 0 0 1 3.28,-2.34 9.54,9.54 0 0 0 -10.9,2.34 c -4.94,5.26 -9.4,12.21 -13.29,19.6 a 154.89,154.89 0 0 0 -17.39,72 V 607 h 7.63 V 346.16 a 154.77,154.77 0 0 1 17.39,-72.02 z" transform="translate(-32.41,-42.89)"/></g><path style="fill:url(#linearGradient1058)" id="path129" fill="url(#f1ea05b4-3102-498a-ab85-05d222a08540)" d="m 457.27,692.54 h -0.65 A 11.54,11.54 0 0 1 445.08,681 v -52.86 h 23.73 V 681 a 11.54,11.54 0 0 1 -11.54,11.54 z" transform="translate(-32.41,-42.89)"/><path style="fill:url(#a65a9945-4cea-45de-8969-2abf9ed9c602)" id="path131" fill="url(#a65a9945-4cea-45de-8969-2abf9ed9c602)" d="m 534.38,692.54 h -0.66 A 11.54,11.54 0 0 1 522.19,681 v -52.86 h 23.72 V 681 a 11.54,11.54 0 0 1 -11.53,11.54 z" transform="translate(-32.41,-42.89)"/><path style="fill:url(#e83da883-60d3-4fc8-a1fc-2d21e84cc652)" id="path133" fill="url(#e83da883-60d3-4fc8-a1fc-2d21e84cc652)" d="M 582.67,692.54 H 582 A 11.54,11.54 0 0 1 570.49,681 v -52.86 h 23.72 V 681 a 11.54,11.54 0 0 1 -11.54,11.54 z" transform="translate(-32.41,-42.89)"/><path style="fill:url(#e7319a41-e0d4-4be9-9de6-9ff87ed2cc66)" id="path135" fill="url(#e7319a41-e0d4-4be9-9de6-9ff87ed2cc66)" d="M 660.63,692.54 H 660 A 11.54,11.54 0 0 1 648.44,681 v -52.86 h 23.72 V 681 a 11.54,11.54 0 0 1 -11.53,11.54 z" transform="translate(-32.41,-42.89)"/><path id="path137" fill="#eee" d="m 566.34,49.64 a 13.2,13.2 0 0 0 -20.21,0 c -7,7.88 -13.4,18.29 -19,29.37 -16.46,32.84 -24.82,70.12 -24.82,107.92 v 418.61 h 107 V 185.25 c 0,-36.73 -8,-73 -23.64,-105.1 -7.35,-15.23 -14.12,-24.7 -19.33,-30.51 z" transform="translate(-32.41,-42.89)"/><rect id="rect139" width="55.84" height="25.59" x="494.79" y="53.25" fill="#535461" rx="11"/><g id="g143" opacity=".1"><rect id="rect141" width="105.91" height="4.11" x="470.48" y="158.35"/></g></g></svg>