<?xml version="1.0" encoding="UTF-8"?>
<!DOCTYPE svg  PUBLIC '-//W3C//DTD SVG 1.1//EN'  'http://www.w3.org/Graphics/SVG/1.1/DTD/svg11.dtd'>
<svg enable-background="new 0 0 640 480" version="1.1" viewBox="0 0 640 480" xmlns="http://www.w3.org/2000/svg">
 <path d="m255.5 234.03c-34.867 0.142-68.361 13.212-98.628 29.581-26.972 15.158-52.706 37.738-61.016 68.644-7.099 27.292 3.477 57.388 23.356 76.699 20.869 19.506 51.621 23.34 78.881 19.218 31.722-5.021 62.008-17.747 89.113-34.776 24.349-15.747 46.35-38.979 51.338-68.53 3.84-25.136-1.655-45.73-19.705-63.404-11.986 13.266-21.322 23.562-22.879 36.563-0.814 7.076 1.527 12.739-1.002 20.588-3.596 18.417-21.432 29.873-36.459 39.295-22.512 12.896-47.133 23.638-73.207 26.127-14.884 1.364-32.675-1.998-40.759-16.002-7.542-11.562-5.982-27.185 2.337-37.907 15.276-20.535 39.392-31.736 62.567-40.966 14.109-5.278 24.967-9.404 40.135-9.541 3.552-15.76 9.881-30.572 18.83-43.95-5.86-0.99-6.98-1.59-12.91-1.63z" opacity=".97"/>
 <path d="m403.37 150.44c-24.064 0.832-47.539 9.049-67.264 22.78-9.768 6.775-19.054 14.27-27.752 22.401l1.597 13.237 17.569-16.771-5.59 24.757 18.368-11.181-5.591 21.563 12.199-5.59c3.756-3.414 7.565-6.77 11.461-10.003 9-7.156 19.108-14.063 30.088-18.388 7.226-2.702 16.491-2.324 21.623 4.153 8.054 6.29 2.361 12.001 4.232 18.713 7.749 11.539 23.354 14.259 36.66 8.85 5.058-15.704 6.662-24.26 2.691-40.541-5.76-18.99-24.291-33.915-44.403-33.981-1.97-0.08-3.94-0.07-5.9 0zm-113.41 64.45c-6.519 7.593-12.611 15.548-18.108 23.899-3.445 6.659-9.007 14.905-12.119 22.78-7.064 16.862-10.13 35.512-8.925 53.748 1.173 14.196 4.302 24.811 17.165 31.559 10.849-8.845 23.928-18.108 22.906-32.896-5.727-7.19-1.819-16.687 2.376-24.039 7.86-15.663 17.841-30.061 29.21-43.305l-7.727 2.955 1.597-18.369-19.167 10.383 7.188-22.362-18.369 22.362 6.389-23.161c0.01-0.01-1.72-2.52-2.41-3.56zm88.92 46.41c-14.065 15.85-18.401 24.527-35.576 36.964 4.297 16.968 0.934 34.72-7.206 50.116 35.51-11.655 56.76-31.143 80.96-58.821 4.739-4.392 6.767-7.853-0.919-8.227-12.85-3.81-28-10.19-37.25-20.03z"/>
 <path d="m469.46 30.97c-28.968-0.612-54.5 18.041-71.179 40.394-18.655 25.206-33.417 54.902-40.564 85.3 11.586-7.77 41.176-12.623 53.486-11.057 8.287-22.583 18.087-46.076 37.61-61.192 11.53-9.529 29.158-9.954 40.899-0.626 14.21 11.065 14.995 31.239 12.753 47.637-3.895 24.363-12.845 47.901-25.253 69.184-9.024 14.531-22.005 30.112-40.283 31.615-15.215 1.066-29.461-8.076-32.783-22.966-3.209-4.339-0.127-13.769-4.465-13.963-6.334-1.866-22.285 6.279-37.049 18.113 2.213 24.807 10.334 41.267 32.481 53.384 22.061 12.719 50.534 15.706 73.567 3.625 27.165-13.465 45.366-39.684 57.984-66.415 14.777-32.726 26.221-69.148 20.58-105.4-3.335-23.021-16.561-44.998-37.363-56.161-12.34-6.83-26.27-11.214-40.44-11.449z"/>
</svg>
